<svg width="25" height="24" viewBox="0 0 25 24" fill="none" xmlns="http://www.w3.org/2000/svg">
<path d="M21.5073 19V20H3.50732V19L5.50732 17V11C5.50732 7.9 7.53732 5.17 10.5073 4.29V4C10.5073 3.46957 10.718 2.96086 11.0931 2.58579C11.4682 2.21071 11.9769 2 12.5073 2C13.0378 2 13.5465 2.21071 13.9215 2.58579C14.2966 2.96086 14.5073 3.46957 14.5073 4V4.29C17.4773 5.17 19.5073 7.9 19.5073 11V17L21.5073 19ZM14.5073 21C14.5073 21.5304 14.2966 22.0391 13.9215 22.4142C13.5465 22.7893 13.0378 23 12.5073 23C11.9769 23 11.4682 22.7893 11.0931 22.4142C10.718 22.0391 10.5073 21.5304 10.5073 21" fill="white"/>
</svg>
