<svg width="24" height="24" viewBox="0 0 24 24" fill="none" xmlns="http://www.w3.org/2000/svg">
<g clip-path="url(#clip0_449_9)">
<path d="M15 3.00008C16.296 3.00008 17.496 3.41008 18.477 4.11008L9.343 13.2431C9.24749 13.3353 9.17131 13.4457 9.1189 13.5677C9.06649 13.6897 9.0389 13.8209 9.03775 13.9537C9.0366 14.0865 9.0619 14.2181 9.11218 14.341C9.16246 14.4639 9.23671 14.5756 9.3306 14.6695C9.4245 14.7634 9.53615 14.8376 9.65905 14.8879C9.78194 14.9382 9.91362 14.9635 10.0464 14.9623C10.1792 14.9612 10.3104 14.9336 10.4324 14.8812C10.5544 14.8288 10.6648 14.7526 10.757 14.6571L19.891 5.52308C20.6141 6.53811 21.0019 7.7538 21 9.00008V19.0001C21 19.5305 20.7893 20.0392 20.4142 20.4143C20.0391 20.7894 19.5304 21.0001 19 21.0001H5C4.46957 21.0001 3.96086 20.7894 3.58579 20.4143C3.21071 20.0392 3 19.5305 3 19.0001V5.00008C3 4.46965 3.21071 3.96094 3.58579 3.58587C3.96086 3.21079 4.46957 3.00008 5 3.00008H15ZM21.657 2.34308C21.8445 2.53061 21.9498 2.78492 21.9498 3.05008C21.9498 3.31524 21.8445 3.56955 21.657 3.75708L19.89 5.52308C19.5006 4.97639 19.0227 4.4985 18.476 4.10908L20.242 2.34308C20.4295 2.15561 20.6838 2.05029 20.949 2.05029C21.2142 2.05029 21.4695 2.15561 21.657 2.34308Z" fill="white"/>
</g>
<defs>
<clipPath id="clip0_449_9">
<rect width="24" height="24" fill="white"/>
</clipPath>
</defs>
</svg>
