<svg width="1024" height="1024" viewBox="0 0 1024 1024" fill="none" xmlns="http://www.w3.org/2000/svg">
<path d="M290 236.4L333.9 192.5C334.957 191.437 335.695 190.099 336.03 188.638C336.365 187.176 336.282 185.651 335.793 184.234C335.303 182.817 334.426 181.566 333.26 180.623C332.095 179.68 330.688 179.083 329.2 178.9L169 160C163.9 159.4 159.5 163.7 160.1 168.9L179 329.1C179.8 335.7 187.9 338.5 192.6 333.8L236.3 290.1L370 423.7C373.1 426.8 378.2 426.8 381.3 423.7L423.7 381.4C426.8 378.3 426.8 373.2 423.7 370.1L290 236.4ZM642.7 423.7C645.8 426.8 650.9 426.8 654 423.7L787.7 290.1L831.4 333.8C832.463 334.857 833.801 335.595 835.262 335.93C836.723 336.265 838.249 336.182 839.666 335.693C841.083 335.203 842.334 334.326 843.277 333.16C844.22 331.995 844.817 330.588 845 329.1L863.9 169C864.5 163.9 860.2 159.5 855 160.1L694.8 179C688.2 179.8 685.4 187.9 690.1 192.6L734 236.5L600.3 370C598.811 371.503 597.976 373.534 597.976 375.65C597.976 377.766 598.811 379.796 600.3 381.3L642.7 423.7ZM845 694.9C844.2 688.3 836.1 685.5 831.4 690.2L787.7 733.9L654 600.3C652.496 598.811 650.466 597.976 648.35 597.976C646.234 597.976 644.204 598.811 642.7 600.3L600.3 642.6C598.811 644.103 597.976 646.134 597.976 648.25C597.976 650.366 598.811 652.396 600.3 653.9L734 787.6L690.1 831.5C689.043 832.563 688.305 833.901 687.97 835.362C687.635 836.823 687.718 838.349 688.207 839.766C688.697 841.183 689.574 842.434 690.74 843.377C691.905 844.32 693.312 844.917 694.8 845.1L855 864C860.1 864.6 864.5 860.3 863.9 855.1L845 694.9ZM381.3 600.3C379.796 598.811 377.766 597.976 375.65 597.976C373.534 597.976 371.504 598.811 370 600.3L236.3 733.9L192.6 690.2C191.537 689.142 190.199 688.404 188.738 688.07C187.277 687.735 185.751 687.817 184.334 688.307C182.917 688.797 181.666 689.674 180.723 690.84C179.78 692.005 179.183 693.412 179 694.9L160.1 855C159.5 860.1 163.8 864.5 169 863.9L329.2 845C335.8 844.2 338.6 836.1 333.9 831.4L290 787.6L423.7 654C426.8 650.9 426.8 645.8 423.7 642.7L381.3 600.3Z" fill="rgb(63, 63, 63)"/>
</svg>
