<svg width="30" height="30" viewBox="0 0 30 30" fill="none" xmlns="http://www.w3.org/2000/svg">
<path d="M3.75 8.58398V21.416L13.1982 26.8066C13.0908 27.1191 13.0029 27.4316 12.9346 27.7441C12.8662 28.0566 12.8027 28.3789 12.7441 28.7109L1.875 22.5V7.5L15 0L28.125 7.5V13.125C27.8516 12.8516 27.5586 12.6074 27.2461 12.3926C26.9336 12.1777 26.6016 11.9678 26.25 11.7627V8.58398L15 2.15332L3.75 8.58398ZM15 10.7373L11.25 12.876V17.124L14.5459 19.0137C14.5654 19.4238 14.6143 19.8291 14.6924 20.2295C14.7705 20.6299 14.8828 21.0254 15.0293 21.416L15 21.4307L9.375 18.208V11.792L15 8.56934L19.7607 11.2939C19.4189 11.4307 19.0869 11.582 18.7646 11.748C18.4424 11.9141 18.125 12.1094 17.8125 12.334L15 10.7373ZM25.8252 23.2764C26.46 23.5986 27.0361 23.9941 27.5537 24.4629C28.0713 24.9316 28.5107 25.459 28.8721 26.0449C29.2334 26.6309 29.5117 27.2559 29.707 27.9199C29.9023 28.584 30 29.2773 30 30H28.125C28.125 29.2285 27.9785 28.501 27.6855 27.8174C27.3926 27.1338 26.9922 26.5381 26.4844 26.0303C25.9766 25.5225 25.376 25.1172 24.6826 24.8145C23.9893 24.5117 23.2617 24.3652 22.5 24.375C21.7188 24.375 20.9912 24.5215 20.3174 24.8145C19.6436 25.1074 19.0479 25.5078 18.5303 26.0156C18.0127 26.5234 17.6074 27.124 17.3145 27.8174C17.0215 28.5107 16.875 29.2383 16.875 30H15C15 29.2871 15.0977 28.5986 15.293 27.9346C15.4883 27.2705 15.7666 26.6406 16.1279 26.0449C16.4893 25.4492 16.9287 24.9219 17.4463 24.4629C17.9639 24.0039 18.54 23.6084 19.1748 23.2764C18.4521 22.749 17.8906 22.0898 17.4902 21.2988C17.0898 20.5078 16.8848 19.6582 16.875 18.75C16.875 17.9785 17.0215 17.251 17.3145 16.5674C17.6074 15.8838 18.0078 15.2881 18.5156 14.7803C19.0234 14.2725 19.6191 13.8672 20.3027 13.5645C20.9863 13.2617 21.7188 13.1152 22.5 13.125C23.2715 13.125 23.999 13.2715 24.6826 13.5645C25.3662 13.8574 25.9619 14.2578 26.4697 14.7656C26.9775 15.2734 27.3779 15.874 27.6709 16.5674C27.9639 17.2607 28.1104 17.9883 28.1104 18.75C28.1104 19.6484 27.9102 20.4932 27.5098 21.2842C27.1094 22.0752 26.5479 22.7393 25.8252 23.2764ZM18.75 18.75C18.75 19.2676 18.8477 19.751 19.043 20.2002C19.2383 20.6494 19.5068 21.0498 19.8486 21.4014C20.1904 21.7529 20.5859 22.0215 21.0352 22.207C21.4844 22.3926 21.9727 22.4902 22.5 22.5C23.0176 22.5 23.501 22.4023 23.9502 22.207C24.3994 22.0117 24.7998 21.7432 25.1514 21.4014C25.5029 21.0596 25.7715 20.6641 25.957 20.2148C26.1426 19.7656 26.2402 19.2773 26.25 18.75C26.25 18.2324 26.1523 17.749 25.957 17.2998C25.7617 16.8506 25.4932 16.4502 25.1514 16.0986C24.8096 15.7471 24.4141 15.4785 23.9648 15.293C23.5156 15.1074 23.0273 15.0098 22.5 15C21.9824 15 21.499 15.0977 21.0498 15.293C20.6006 15.4883 20.2002 15.7568 19.8486 16.0986C19.4971 16.4404 19.2285 16.8359 19.043 17.2852C18.8574 17.7344 18.7598 18.2227 18.75 18.75Z" fill="gray"/>
</svg>
