<svg width="26" height="26" viewBox="0 0 26 26" fill="none" xmlns="http://www.w3.org/2000/svg">
<g clip-path="url(#clip0_450_17)">
<path d="M4 0C1.795 0 0 1.795 0 4V22C0 24.205 1.795 26 4 26H17C18.063 26 19.539 24.465 21.25 22.719C21.49 22.475 21.72 22.246 21.969 22C22.215 21.752 22.475 21.49 22.719 21.25C24.466 19.538 26 18.063 26 17V4C26 1.795 24.205 0 22 0H4ZM4 2H22C22.5304 2 23.0391 2.21071 23.4142 2.58579C23.7893 2.96086 24 3.46957 24 4V17C24 17.995 22.998 18 22 18H19C18.449 18 18 18.449 18 19V22.063C18 22.95 18.002 23.816 17.281 24H4C3.46957 24 2.96086 23.7893 2.58579 23.4142C2.21071 23.0391 2 22.5304 2 22V4C2 3.46957 2.21071 2.96086 2.58579 2.58579C2.96086 2.21071 3.46957 2 4 2ZM6.813 8C6.54778 8.0248 6.30328 8.15394 6.13328 8.35901C5.96328 8.56408 5.8817 8.82828 5.9065 9.0935C5.9313 9.35872 6.06044 9.60322 6.26551 9.77322C6.47058 9.94322 6.73478 10.0248 7 10H19C19.2652 10 19.5196 9.89464 19.7071 9.70711C19.8946 9.51957 20 9.26522 20 9C20 8.73478 19.8946 8.48043 19.7071 8.29289C19.5196 8.10536 19.2652 8 19 8H7C6.96868 7.99853 6.93732 7.99853 6.906 8C6.87502 7.99856 6.84398 7.99856 6.813 8ZM6.813 13C6.68168 13.0123 6.55406 13.0503 6.43743 13.1119C6.32081 13.1735 6.21746 13.2575 6.13328 13.359C5.96328 13.5641 5.8817 13.8283 5.9065 14.0935C5.9313 14.3587 6.06044 14.6032 6.26551 14.7732C6.47058 14.9432 6.73478 15.0248 7 15H17C17.2652 15 17.5196 14.8946 17.7071 14.7071C17.8946 14.5196 18 14.2652 18 14C18 13.7348 17.8946 13.4804 17.7071 13.2929C17.5196 13.1054 17.2652 13 17 13H7C6.96868 12.9985 6.93732 12.9985 6.906 13C6.87502 12.9986 6.84398 12.9986 6.813 13Z" fill="#699BF7"/>
</g>
<defs>
<clipPath id="clip0_450_17">
<rect width="26" height="26" fill="white"/>
</clipPath>
</defs>
</svg>
