<svg width="24" height="24" viewBox="0 0 24 24" fill="none" xmlns="http://www.w3.org/2000/svg">
<path d="M7.74984 16C8.08136 16 8.3993 15.8683 8.63372 15.6339C8.86815 15.3995 8.99984 15.0815 8.99984 14.75C8.99984 14.4185 8.86815 14.1005 8.63372 13.8661C8.3993 13.6317 8.08136 13.5 7.74984 13.5C7.41832 13.5 7.10038 13.6317 6.86596 13.8661C6.63154 14.1005 6.49984 14.4185 6.49984 14.75C6.49984 15.0815 6.63154 15.3995 6.86596 15.6339C7.10038 15.8683 7.41832 16 7.74984 16ZM13.2498 14.75C13.2498 15.0815 13.1181 15.3995 12.8837 15.6339C12.6493 15.8683 12.3314 16 11.9998 16C11.6683 16 11.3504 15.8683 11.116 15.6339C10.8815 15.3995 10.7498 15.0815 10.7498 14.75C10.7498 14.4185 10.8815 14.1005 11.116 13.8661C11.3504 13.6317 11.6683 13.5 11.9998 13.5C12.3314 13.5 12.6493 13.6317 12.8837 13.8661C13.1181 14.1005 13.2498 14.4185 13.2498 14.75ZM16.2498 16C16.5814 16 16.8993 15.8683 17.1337 15.6339C17.3681 15.3995 17.4998 15.0815 17.4998 14.75C17.4998 14.4185 17.3681 14.1005 17.1337 13.8661C16.8993 13.6317 16.5814 13.5 16.2498 13.5C15.9183 13.5 15.6004 13.6317 15.366 13.8661C15.1315 14.1005 14.9998 14.4185 14.9998 14.75C14.9998 15.0815 15.1315 15.3995 15.366 15.6339C15.6004 15.8683 15.9183 16 16.2498 16ZM4.87284 3.633C5.03704 3.43497 5.24287 3.27558 5.4757 3.16617C5.70852 3.05676 5.96259 3.00002 6.21984 3H17.7798C18.3008 3 18.7948 3.232 19.1278 3.633L22.7078 7.953C23.3838 8.767 22.8048 10 21.7458 10H20.9998V18.75C20.9998 19.413 20.7364 20.0489 20.2676 20.5178C19.7988 20.9866 19.1629 21.25 18.4998 21.25H5.49984C4.8368 21.25 4.20091 20.9866 3.73207 20.5178C3.26323 20.0489 2.99984 19.413 2.99984 18.75V10H2.25384C1.19584 10 0.616841 8.767 1.29184 7.952L4.87284 3.633ZM6.21984 4.5C6.1832 4.50001 6.14701 4.50808 6.11383 4.52364C6.08065 4.53919 6.05129 4.56184 6.02784 4.59L2.78584 8.5H21.2138L17.9728 4.59C17.9493 4.56171 17.9198 4.53898 17.8864 4.52342C17.853 4.50786 17.8167 4.49987 17.7798 4.5H6.21984ZM4.49984 10V18.75C4.49984 19.0152 4.6052 19.2696 4.79273 19.4571C4.98027 19.6446 5.23462 19.75 5.49984 19.75H18.4998C18.7651 19.75 19.0194 19.6446 19.2069 19.4571C19.3945 19.2696 19.4998 19.0152 19.4998 18.75V10H4.49984Z" fill="#699BF7"/>
</svg>
