<svg width="14" height="14" viewBox="0 0 14 14" fill="none" xmlns="http://www.w3.org/2000/svg">
<g clip-path="url(#clip0_441_20)">
<path fill-rule="evenodd" clip-rule="evenodd" d="M5.04883 0.276026C3.69557 0.669659 2.49248 1.46228 1.59673 2.55035C0.700973 3.63842 0.1542 4.97135 0.027832 6.37503H3.22783C3.41334 4.23908 4.03264 2.16343 5.04783 0.275026L5.04883 0.276026ZM3.22783 7.62503H0.027832C0.153936 9.02875 0.700475 10.3618 1.59605 11.4501C2.49163 12.5383 3.69461 13.3312 5.04783 13.725C4.03264 11.8366 3.41334 9.76097 3.22783 7.62503ZM6.65183 13.992C5.43863 12.0695 4.69523 9.8883 4.48183 7.62503H9.51683C9.30343 9.8883 8.56004 12.0695 7.34683 13.992C7.1153 14.0033 6.88336 14.0033 6.65183 13.992ZM8.95183 13.724C10.3049 13.3302 11.5078 12.5375 12.4033 11.4495C13.2989 10.3614 13.8455 9.02858 13.9718 7.62503H10.7718C10.5863 9.76097 9.96703 11.8366 8.95183 13.725V13.724ZM10.7718 6.37503H13.9718C13.8457 4.9713 13.2992 3.63824 12.4036 2.54999C11.508 1.46174 10.3051 0.668892 8.95183 0.275026C9.96705 2.16342 10.5863 4.23907 10.7718 6.37503ZM6.65183 0.00802609C6.88369 -0.0033264 7.11597 -0.0033264 7.34783 0.00802609C8.56068 1.93064 9.30374 4.11184 9.51683 6.37503H4.48283C4.69983 4.09803 5.44483 1.91503 6.65183 0.00802609Z" fill="white"/>
</g>
<defs>
<clipPath id="clip0_441_20">
<rect width="14" height="14" fill="white"/>
</clipPath>
</defs>
</svg>
